<svg width="28" height="28" viewBox="0 0 28 28" fill="none" xmlns="http://www.w3.org/2000/svg">
<path d="M3.55469 6.07031H5.19531V7.71094H3.55469V6.07031Z" fill="#645E49"/>
<path d="M7.10938 6.07031H8.75V7.71094H7.10938V6.07031Z" fill="#645E49"/>
<path d="M12.1418 6.07031H24.4453V7.71094H12.1418V6.07031Z" fill="#645E49"/>
<path d="M14.957 13.1797H23.707V14.8203H14.957V13.1797Z" fill="#645E49"/>
<path d="M14.957 20.2891H23.707V21.9297H14.957V20.2891Z" fill="#645E49"/>
<path d="M14.957 16.7344H23.707V18.375H14.957V16.7344Z" fill="#645E49"/>
<path d="M0 2.51562V25.4844H28V2.51562H0ZM26.3594 4.15625V9.625H1.64062V4.15625H26.3594ZM1.64062 23.8438V11.2656H26.3594V23.8438H1.64062Z" fill="#645E49"/>
<path d="M10.7837 17.2816C11.0867 16.8568 11.2656 16.3377 11.2656 15.7773C11.2656 14.345 10.1003 13.1797 8.66797 13.1797C7.23565 13.1797 6.07031 14.345 6.07031 15.7773C6.07031 16.3377 6.2493 16.8568 6.55222 17.2816C5.2063 18.0286 4.29297 19.464 4.29297 21.1094V21.9297H13.043V21.1094C13.043 19.464 12.1296 18.0286 10.7837 17.2816ZM7.71094 15.7773C7.71094 15.2497 8.14029 14.8203 8.66797 14.8203C9.19565 14.8203 9.625 15.2497 9.625 15.7773C9.625 16.305 9.19565 16.7344 8.66797 16.7344C8.14029 16.7344 7.71094 16.305 7.71094 15.7773ZM6.05927 20.2891C6.4085 19.1808 7.44587 18.375 8.66797 18.375C9.89007 18.375 10.9274 19.1808 11.2767 20.2891H6.05927Z" fill="#645E49"/>
</svg>
