<svg width="28" height="28" viewBox="0 0 28 28" fill="none" xmlns="http://www.w3.org/2000/svg">
<path d="M14 0C6.28031 0 0 6.28042 0 14C0 21.7196 6.28031 28 14 28C21.7197 28 28 21.7196 28 14C28 6.28042 21.7197 0 14 0ZM14 25.2903C7.77454 25.2903 2.70966 20.2255 2.70966 14C2.70966 7.77448 7.77454 2.70966 14 2.70966C20.2255 2.70966 25.2903 7.77454 25.2903 14C25.2903 20.2255 20.2255 25.2903 14 25.2903Z" fill="#645E49"/>
<path d="M15.3548 12.6452V7.67741H12.6452V12.6452H7.67743V15.3548H12.6452V20.3226H15.3548V15.3548H20.3226V12.6452H15.3548Z" fill="#645E49"/>
</svg>
