<svg width="28" height="28" viewBox="0 0 28 28" fill="none" xmlns="http://www.w3.org/2000/svg">
<path d="M28 14.947C28 21.8106 22.4344 27.3749 15.5686 27.3749C8.70331 27.3749 3.1377 21.8106 3.1377 14.947C3.1377 8.08298 8.70331 2.51866 15.5686 2.51866C22.4344 2.51866 28 8.08298 28 14.947Z" fill="#645E49"/>
<path d="M13.0825 26.7832C5.86862 26.7832 0 20.9159 0 13.7042C0 6.49243 5.86862 0.625107 13.0825 0.625107C20.296 0.625107 26.1646 6.49243 26.1646 13.7042C26.1646 20.9159 20.296 26.7832 13.0825 26.7832ZM13.0825 1.92698C6.58706 1.92698 1.30231 7.21043 1.30231 13.7042C1.30231 20.1979 6.58706 25.4809 13.0825 25.4809C19.578 25.4809 24.8623 20.1979 24.8623 13.7042C24.8623 7.21043 19.578 1.92698 13.0825 1.92698Z" fill="black"/>
<path d="M12.2039 15.7813C12.2443 16.1942 12.3129 16.5011 12.4131 16.7194C12.5525 17.022 12.8216 17.1887 13.1707 17.1887C13.5119 17.1887 13.7819 17.0211 13.9308 16.7168C14.0423 16.4889 14.1122 16.1851 14.143 15.79L14.3996 12.8481C14.4291 12.5651 14.4434 12.2864 14.4434 12.012C14.4434 11.5093 14.3757 11.1252 14.2355 10.8369C14.114 10.5882 13.8422 10.2913 13.2423 10.2913C12.8624 10.2913 12.5481 10.4211 12.3103 10.6767C12.0763 10.9255 11.9573 11.2645 11.9573 11.6834C11.9573 11.9309 11.9751 12.3385 12.012 12.9076L12.2039 15.7813Z" fill="black"/>
<path d="M12.3181 17.9141C12.0824 18.1489 11.9573 18.4502 11.9573 18.7853C11.9573 19.1647 12.0923 19.4816 12.3472 19.7039C12.592 19.9149 12.8807 20.0221 13.2062 20.0221C13.5301 20.0221 13.8175 19.9131 14.0601 19.6969C14.3115 19.4743 14.4434 19.1591 14.4434 18.7853C14.4434 18.4485 14.3158 18.1459 14.0762 17.9124C13.5904 17.4366 12.7925 17.4387 12.3181 17.9141Z" fill="black"/>
</svg>
