<svg width="28" height="28" viewBox="0 0 28 28" fill="none" xmlns="http://www.w3.org/2000/svg">
<g clip-path="url(#clip0)">
<path d="M24.4361 11.6832L14 8.22379L3.56395 11.6832L0.000549316 17.3433L3.28099 18.4307V24.4469L13.9999 28L24.7189 24.4469V18.4307L27.9993 17.3433L24.4361 11.6832ZM21.2915 12.3692L14 14.7862L6.70854 12.3692L14 9.95227L21.2915 12.3692ZM2.50485 16.445L4.45324 13.3501L12.7479 16.0996L10.7995 19.1945L2.50485 16.445ZM4.9217 18.9746L11.5032 21.1563L13.1797 18.4933V25.9996L4.9217 23.2623V18.9746ZM14.8203 25.9996V18.4933L16.4968 21.1562L23.0783 18.9746V23.2622L14.8203 25.9996ZM17.2005 19.1945L15.2522 16.0996L23.5468 13.3501L25.4952 16.4451L17.2005 19.1945Z" fill="#645E49"/>
<path d="M13.1796 -7.62939e-06H14.8203V5.47837H13.1796V-7.62939e-06Z" fill="#645E49"/>
<path d="M5.46423 2.5069L6.88504 1.68657L9.62423 6.43084L8.20342 7.25117L5.46423 2.5069Z" fill="#645E49"/>
<path d="M18.3754 6.43142L21.1146 1.68715L22.5354 2.50748L19.7962 7.25175L18.3754 6.43142Z" fill="#645E49"/>
</g>
<defs>
<clipPath id="clip0">
<rect width="28" height="28" fill="white"/>
</clipPath>
</defs>
</svg>
