<svg width="28" height="28" viewBox="0 0 28 28" fill="none" xmlns="http://www.w3.org/2000/svg">
<g clip-path="url(#clip0)">
<path d="M17.5449 20.3324H19.7313V24.7051C19.7313 26.5134 18.2601 27.9844 16.4518 27.9844H3.27933C1.47122 27.9844 0 26.5134 0 24.7051V3.27933C0 1.47122 1.47122 0 3.27933 0H16.4518C18.2601 0 19.7313 1.47122 19.7313 3.27933V7.65198H17.5449V3.27933C17.5449 2.6767 17.0546 2.18622 16.4518 2.18622H3.27933C2.6767 2.18622 2.18622 2.6767 2.18622 3.27933V24.7051C2.18622 25.3077 2.6767 25.7982 3.27933 25.7982H16.4518C17.0546 25.7982 17.5449 25.3077 17.5449 24.7051V20.3324ZM22.8468 8.83887L21.3008 10.3849L23.8149 12.8992H9.67435V15.0854H23.8149L21.3008 17.5995L22.8468 19.1455L28 13.9923L22.8468 8.83887Z" fill="#645E49"/>
</g>
<defs>
<clipPath id="clip0">
<rect width="28" height="28" fill="white"/>
</clipPath>
</defs>
</svg>
