<svg width="22" height="20" viewBox="0 0 22 20" fill="none" xmlns="http://www.w3.org/2000/svg">
<path d="M11 0C4.95433 0 0 4.543 0 10.0391C0 15.5032 4.90918 20 11 20C17.0833 20 22 15.5099 22 10.0391C22 4.543 17.0457 0 11 0ZM12.9336 18.6523C12.3149 18.7695 11.6575 18.8281 11 18.8281C10.3425 18.8281 9.68509 18.7695 9.06641 18.6523V15.9102C9.06641 15.2539 9.25977 15.0195 9.51758 14.7031C9.64883 14.5667 9.72806 14.4443 10.3167 13.6368L9.32422 13.4961C6.77177 13.1563 5.76637 11.9492 5.36673 11.0117C4.8511 9.75784 5.12184 8.18741 6.05003 7.19147C6.19186 7.03903 6.30785 6.78116 6.20479 6.51169C6.01126 5.9726 6.03711 5.11719 6.16602 4.78897C6.84949 4.87778 7.55226 5.32288 8.13838 5.64453C8.40845 5.78781 8.55011 5.74997 8.67969 5.76172C9.15067 5.67261 9.88533 5.457 11.0129 5.457C11.709 5.457 12.4438 5.55069 13.1657 5.73822C13.2948 5.73547 13.5023 5.83527 13.8618 5.64453C14.4744 5.30518 15.1534 4.87534 15.834 4.78897C15.9629 5.11719 15.9887 5.9726 15.7954 6.51169C15.6922 6.78116 15.8081 7.03903 15.9501 7.19147C16.8782 8.18756 17.1489 9.75784 16.6333 11.0117C16.2336 11.9492 15.2282 13.1563 12.6758 13.4961L11.6833 13.6368C12.2917 14.4714 12.3559 14.5715 12.4826 14.7031C12.7402 15.0195 12.9336 15.2539 12.9336 15.9102V18.6523ZM14.2227 18.3125V15.9102C14.2227 15.2422 14.0679 14.7969 13.8616 14.4687C15.8211 13.9883 17.2133 12.9335 17.832 11.4218C18.4895 9.82819 18.1931 7.92969 17.0972 6.61713C17.2907 5.83206 17.2907 4.57809 16.8266 3.99216C16.6203 3.73444 16.3367 3.59375 15.9758 3.59375C15.9629 3.59375 15.9629 3.59375 15.9629 3.59375C14.9634 3.64288 14.1767 4.10049 13.3332 4.56635C12.5598 4.37881 11.7734 4.28513 10.9871 4.28513C10.188 4.28513 9.38867 4.39056 8.67986 4.56635C7.79195 4.07959 7.0128 3.64166 5.98558 3.59375C5.66331 3.59375 5.37965 3.73444 5.17337 3.99216C4.70944 4.57809 4.70944 5.83206 4.9028 6.61713C3.80693 7.92969 3.51051 9.83978 4.16797 11.4218C4.78665 12.9335 6.17894 13.9883 8.13838 14.4687C7.97842 14.7231 7.85187 15.0513 7.80202 15.4955C7.40623 15.6195 7.06299 15.6599 6.74374 15.5746C6.40704 15.4842 6.1447 15.2798 5.91676 14.9313C5.40483 14.1495 4.53287 13.5112 3.54005 13.5942L3.65335 14.7615C4.11308 14.7232 4.57063 15.1654 4.8083 15.5299C5.20039 16.1302 5.72861 16.5239 6.37868 16.6985C6.86124 16.8277 7.30234 16.8246 7.77734 16.7325V18.3125C4.02614 17.1172 1.28906 13.8594 1.28906 10.0391C1.28906 5.18753 5.66331 1.17188 11 1.17188C16.3367 1.17188 20.7109 5.18753 20.7109 10.0391C20.7109 13.8594 17.9739 17.1172 14.2227 18.3125Z" fill="black"/>
</svg>
