<svg width="22" height="20" viewBox="0 0 22 20" fill="none" xmlns="http://www.w3.org/2000/svg">
<path d="M18.7773 0H3.22266C1.44566 0 0 1.31424 0 2.92969V17.0703C0 18.6858 1.44566 20 3.22266 20H18.7773C20.5543 20 22 18.6858 22 17.0703V2.92969C22 1.31424 20.5543 0 18.7773 0ZM20.7109 17.0703C20.7109 18.0396 19.8435 18.8281 18.7773 18.8281H3.22266C2.15649 18.8281 1.28906 18.0396 1.28906 17.0703V2.92969C1.28906 1.96045 2.15649 1.17188 3.22266 1.17188H18.7773C19.8435 1.17188 20.7109 1.96045 20.7109 2.92969V17.0703Z" fill="black"/>
<path d="M3.91016 16.4844H7.77734V8.20312H3.91016V16.4844ZM5.19922 9.375H6.48828V15.3125H5.19922V9.375Z" fill="black"/>
<path d="M14.2263 8.20312C14.2252 8.20312 14.2238 8.20312 14.2227 8.20312C13.777 8.20312 13.343 8.27087 12.9336 8.4024V8.20312H9.06641V16.4844H12.9336V12.3047C12.9336 11.9817 13.2228 11.7188 13.5781 11.7188C13.9335 11.7188 14.2227 11.9817 14.2227 12.3047V16.4844H18.0898V11.9019C18.0898 10.0055 16.3976 8.20496 14.2263 8.20312ZM16.8008 15.3125H15.5117V12.3047C15.5117 11.3354 14.6443 10.5469 13.5781 10.5469C12.512 10.5469 11.6447 11.3354 11.6445 12.3045V15.3125H10.3555V9.375H11.6445V10.5476L12.6761 9.84329C13.1248 9.5369 13.6595 9.375 14.2227 9.375H14.2252C15.5972 9.37622 16.8008 10.5569 16.8008 11.9019V15.3125Z" fill="black"/>
<path d="M3.91016 7.03125H7.77734V3.51562H3.91016V7.03125ZM5.19922 4.6875H6.48828V5.85938H5.19922V4.6875Z" fill="black"/>
</svg>
