<svg width="28" height="28" viewBox="0 0 28 28" fill="none" xmlns="http://www.w3.org/2000/svg">
<g clip-path="url(#clip0)">
<path d="M22.1994 3.66869H19.6663V2.53546C19.6663 2.16882 19.2663 2.00218 18.8997 2.00218H16.9332C16.4666 0.668943 15.3 0.00232596 13.9668 0.00232596C12.6482 -0.0472445 11.4489 0.761257 11.0003 2.00218H9.06713C8.70049 2.00218 8.33385 2.16882 8.33385 2.53546V3.66869H5.80066C4.29951 3.6847 3.07141 4.8689 3.00085 6.36846V25.467C3.00085 26.9335 4.33409 28.0001 5.80066 28.0001H22.1994C23.666 28.0001 24.9992 26.9335 24.9992 25.467V6.36852C24.9286 4.8689 23.7005 3.6847 22.1994 3.66869ZM9.66702 3.33541H11.5002C11.8202 3.29637 12.0773 3.05292 12.1335 2.73546C12.3309 1.87586 13.0851 1.25881 13.9668 1.23559C14.8403 1.26207 15.5831 1.88103 15.7666 2.73546C15.8264 3.06389 16.1004 3.31047 16.4332 3.33541H18.3331V6.00188H9.66702V3.33541ZM23.666 25.467C23.666 26.2003 22.9327 26.6669 22.1994 26.6669H5.80066C5.06737 26.6669 4.33409 26.2003 4.33409 25.467V6.36852C4.4021 5.60525 5.03445 5.01596 5.80066 5.00198H8.33379V6.70186C8.369 7.07533 8.69245 7.3547 9.06707 7.33518H18.8996C19.2811 7.35604 19.6147 7.0805 19.6662 6.70186V5.00192H22.1993C22.9655 5.01596 23.5979 5.60519 23.6659 6.36846V25.467H23.666Z" fill="#645E49"/>
<path d="M11.4335 14.901C11.1835 14.6375 10.7684 14.6226 10.5002 14.8677L8.36706 16.9009L7.46714 15.9676C7.21712 15.704 6.80205 15.6892 6.53385 15.9343C6.27566 16.2048 6.27566 16.6304 6.53385 16.9009L7.90038 18.3008C8.01866 18.4332 8.18951 18.5065 8.36699 18.5008C8.54282 18.4983 8.71054 18.4264 8.83361 18.3008L11.4334 15.8343C11.6911 15.5979 11.7084 15.1972 11.4719 14.9396C11.4597 14.9261 11.4469 14.9133 11.4335 14.901Z" fill="#645E49"/>
<path d="M20.9995 16.3342H13.3335C12.9653 16.3342 12.6669 16.6327 12.6669 17.0008C12.6669 17.369 12.9653 17.6675 13.3335 17.6675H20.9995C21.3677 17.6675 21.6662 17.369 21.6662 17.0008C21.6662 16.6327 21.3677 16.3342 20.9995 16.3342Z" fill="#645E49"/>
<path d="M11.4335 9.56811C11.1835 9.30457 10.7684 9.2897 10.5002 9.53481L8.36706 11.568L7.46714 10.6347C7.21712 10.3711 6.80205 10.3563 6.53385 10.6014C6.27566 10.8719 6.27566 11.2975 6.53385 11.568L7.90038 12.9679C8.01866 13.1003 8.18951 13.1735 8.36699 13.1679C8.54282 13.1654 8.71054 13.0935 8.83361 12.9679L11.4334 10.5014C11.6911 10.265 11.7084 9.86432 11.4719 9.60665C11.4597 9.59319 11.4469 9.58036 11.4335 9.56811Z" fill="#645E49"/>
<path d="M20.9995 11.0013H13.3335C12.9653 11.0013 12.6669 11.2998 12.6669 11.6679C12.6669 12.0361 12.9653 12.3345 13.3335 12.3345H20.9995C21.3677 12.3345 21.6662 12.0361 21.6662 11.6679C21.6662 11.2998 21.3677 11.0013 20.9995 11.0013Z" fill="#645E49"/>
<path d="M11.4335 20.2339C11.1835 19.9703 10.7684 19.9555 10.5002 20.2006L8.36706 22.2337L7.46714 21.3005C7.21712 21.0369 6.80205 21.0221 6.53385 21.2671C6.27566 21.5376 6.27566 21.9632 6.53385 22.2337L7.90038 23.6336C8.01866 23.7661 8.18951 23.8393 8.36699 23.8336C8.54282 23.8312 8.71054 23.7593 8.83361 23.6336L11.4334 21.1672C11.6911 20.9307 11.7084 20.5301 11.4719 20.2724C11.4597 20.259 11.4469 20.2462 11.4335 20.2339Z" fill="#645E49"/>
<path d="M20.9995 21.6672H13.3335C12.9653 21.6672 12.6669 21.9656 12.6669 22.3338C12.6669 22.7019 12.9653 23.0004 13.3335 23.0004H20.9995C21.3677 23.0004 21.6662 22.7019 21.6662 22.3338C21.6662 21.9656 21.3677 21.6672 20.9995 21.6672Z" fill="#645E49"/>
</g>
<defs>
<clipPath id="clip0">
<rect width="28" height="28" fill="white"/>
</clipPath>
</defs>
</svg>
