<svg width="28" height="28" viewBox="0 0 28 28" fill="none" xmlns="http://www.w3.org/2000/svg">
<g clip-path="url(#clip0)">
<path d="M23.5608 4.7362C20.8723 1.91815 16.7406 1.48558 13.6842 3.18346C13.4202 3.33013 13.3251 3.66317 13.4717 3.92721C13.6184 4.19135 13.9514 4.28634 14.2155 4.13972C17.011 2.58654 20.5284 3.14244 22.767 5.48892C25.0768 7.93951 25.3369 11.5924 23.55 14.3006C21.0886 18.0391 15.7725 18.6025 12.5851 15.4146C10.4374 13.2676 9.81516 9.80518 11.3666 6.98762C11.5122 6.72294 11.4156 6.39033 11.151 6.24475C10.8864 6.09928 10.5538 6.1957 10.4081 6.46033C10.3746 6.5213 10.315 6.63495 10.2575 6.75148H10.2576C8.66683 9.99412 9.39057 13.7679 11.8117 16.1881C15.4838 19.861 21.6177 19.2249 24.4633 14.9026C26.5041 11.8095 26.2538 7.59334 23.5608 4.7362Z" fill="#645E49"/>
<path d="M24.9615 3.03877C20.9097 -1.01253 14.3166 -1.01269 10.2646 3.03883C6.62085 6.68309 6.22857 12.3967 9.19586 16.4841L7.49141 18.1881C6.89385 17.9021 6.13817 17.9944 5.62357 18.5091L0.802215 23.331C-0.266759 24.3992 -0.267634 26.1292 0.801942 27.1981C1.87048 28.2673 3.60041 28.2678 4.66916 27.1982L9.49122 22.3767C10.0056 21.8622 10.0983 21.1066 9.81213 20.5089L11.5164 18.8043C15.6047 21.7723 21.3178 21.379 24.9615 17.7357C29.013 13.6838 29.013 7.09078 24.9615 3.03877ZM8.71767 21.6032L3.8955 26.4248C3.25462 27.0662 2.2172 27.0668 1.57544 26.4245C0.933957 25.7835 0.933575 24.7461 1.57555 24.1046L6.39701 19.2826C6.61013 19.0694 6.95712 19.0693 7.17024 19.2826L8.71762 20.83C8.9309 21.0431 8.9309 21.3901 8.71767 21.6032ZM9.10442 19.6697L8.3307 18.8959L9.88825 17.3388C10.0104 17.4743 10.1359 17.6072 10.2645 17.7357C10.3931 17.8643 10.5259 17.9899 10.6616 18.1121L9.10442 19.6697ZM24.188 16.9622C20.5635 20.5862 14.6923 20.6171 11.0379 16.9622C7.38795 13.3126 7.40966 7.44122 11.0379 3.81233C14.6631 0.187644 20.5622 0.187043 24.1879 3.81233C27.8129 7.43777 27.8129 13.3368 24.188 16.9622Z" fill="#645E49"/>
<path d="M12.5983 4.59965C12.5945 4.59473 12.5901 4.59035 12.5852 4.58543C12.3713 4.3721 12.0251 4.3721 11.8112 4.58543C11.5979 4.79931 11.5979 5.14554 11.8112 5.35937C11.8162 5.36429 11.8205 5.36866 11.8255 5.37304C12.0404 5.5727 12.3763 5.56778 12.5852 5.35937C12.7935 5.15041 12.7985 4.81457 12.5983 4.59965Z" fill="#645E49"/>
</g>
<defs>
<clipPath id="clip0">
<rect width="28" height="28" fill="white"/>
</clipPath>
</defs>
</svg>
