<svg width="28" height="28" viewBox="0 0 28 28" fill="none" xmlns="http://www.w3.org/2000/svg">
<g clip-path="url(#clip0)">
<path d="M26.7096 2.85941L25.139 1.28884C23.2994 -0.550846 20.1552 -0.399908 18.1302 1.62522L3.95855 15.7968L3.8168 15.9385L0 27.9983L12.0599 24.1816L26.3732 9.86822C27.3417 8.8997 27.9164 7.64714 27.9916 6.34126C28.0688 4.99983 27.6135 3.76323 26.7096 2.85941ZM2.51945 25.4789L4.91395 17.9131L10.0852 23.0844L2.51945 25.4789ZM11.621 22.2984L5.69991 16.3773L15.6219 6.45528L21.5431 12.3765L11.621 22.2984ZM26.3525 6.24698C26.3006 7.15019 25.8956 8.02394 25.2122 8.70731L22.704 11.2156L16.7828 5.29437L19.2911 2.78613C20.6761 1.40112 22.7785 1.2504 23.9781 2.44975L25.5487 4.02032C26.117 4.58858 26.4024 5.37941 26.3525 6.24698Z" fill="#645E49"/>
</g>
<defs>
<clipPath id="clip0">
<rect width="28" height="28" fill="white"/>
</clipPath>
</defs>
</svg>
