<svg width="22" height="19" viewBox="0 0 22 19" fill="none" xmlns="http://www.w3.org/2000/svg">
<g clip-path="url(#clip0)">
<path d="M22 3.82095C20.6161 3.87603 20.6463 3.87154 20.4899 3.88284L21.3095 1.8614C21.3095 1.8614 18.7512 2.67418 18.1026 2.81957C16.3993 1.49741 13.8675 1.43899 12.0574 2.39977C10.5752 3.18675 9.77959 4.5382 10.045 6.11782C7.16017 5.77209 4.72958 4.59111 2.81059 2.60025L2.20366 1.9707L1.75014 2.68998C1.17694 3.59887 0.986603 4.63808 1.21403 5.61611C1.30736 6.01736 1.46597 6.40005 1.68568 6.75839L1.16502 6.58415L1.10326 7.33547C1.04065 8.09867 1.33488 8.98959 1.89046 9.71844C2.04689 9.9237 2.24831 10.1491 2.5036 10.3715L2.23454 10.3358L2.56285 11.1967C2.99438 12.3278 3.89069 13.203 5.05386 13.6894C3.8922 14.1152 2.95377 14.3868 1.41125 14.825L0 15.2257L1.3035 15.8412C1.80049 16.0759 3.55667 16.8597 5.29187 17.0948C9.14899 17.6172 13.4917 17.1918 16.4152 14.9178C18.8777 13.0025 19.6857 10.278 19.5179 7.44274C19.4925 7.01351 19.6287 6.60386 19.9012 6.28945C20.4472 5.65989 21.9966 3.82515 22 3.82095ZM18.8705 5.62264C18.4178 6.14463 18.1911 6.8113 18.2317 7.49956C18.401 10.3594 17.5 12.5773 15.5535 14.0913C13.2797 15.8599 9.61207 16.5541 5.49144 15.9959C4.74519 15.8948 3.97394 15.6686 3.33562 15.4426C4.62888 15.0583 5.62756 14.7157 7.2404 14.0565L9.4919 13.1361L7.00609 12.9987C5.81538 12.9329 4.82391 12.4345 4.21446 11.6254C4.53807 11.6091 4.8501 11.5639 5.16078 11.4891L7.53162 10.9188L5.14098 10.4132C3.97931 10.1675 3.31715 9.56725 2.96619 9.10686C2.73573 8.80433 2.58517 8.49441 2.49487 8.2087C2.73456 8.26422 3.01402 8.30379 3.46469 8.34235L5.67741 8.53137L3.92426 7.35025C2.66104 6.49935 2.15482 5.22096 2.52592 3.992C6.46831 7.52348 11.0972 7.25806 11.5631 7.35141C11.4606 6.49108 11.4579 6.48905 11.431 6.40715C10.8343 4.58546 12.142 3.66048 12.7318 3.34737C13.9638 2.69346 15.9194 2.59489 17.2739 3.67222C17.5665 3.90473 17.9621 3.9962 18.3324 3.91676C18.6647 3.84545 18.9375 3.76992 19.2045 3.68773L18.6486 5.05875L19.3583 5.05918C19.2243 5.21429 19.0637 5.39998 18.8705 5.62264Z" fill="black"/>
</g>
<defs>
<clipPath id="clip0">
<rect width="22" height="19" fill="white"/>
</clipPath>
</defs>
</svg>
