<svg width="788" height="568" viewBox="0 0 788 568" fill="none" xmlns="http://www.w3.org/2000/svg">
<path d="M788 551.796C785.474 574.337 652.898 572.445 653.099 551.794C655.624 529.254 788.201 531.146 788 551.796Z" fill="#E6E6E6"/>
<path d="M696.926 493.95L691.552 505.379L681.699 504.5L675.43 484.279L685.282 479.004L696.926 493.95Z" fill="#FFB8B8"/>
<path d="M730.752 520.273L730.964 528.238L715.737 529.118V519.447L730.752 520.273Z" fill="#FFB8B8"/>
<path d="M725.589 375.26L722.006 445.594L730.964 522.084L704.092 525.601L687.074 428.89L681.699 362.951L725.589 375.26Z" fill="#2F2E41"/>
<path d="M767.688 349.763C767.688 349.763 778.437 419.219 756.044 442.078C733.651 464.937 703.197 505.379 703.197 505.379L681.7 479.004L736.338 421.857L725.59 383.172L681.699 362.951L688.865 314.596L753.357 313.717L767.688 349.763Z" fill="#2F2E41"/>
<path d="M714.841 188.872C725.724 188.872 734.547 180.212 734.547 169.53C734.547 158.848 725.724 150.188 714.841 150.188C703.958 150.188 695.135 158.848 695.135 169.53C695.135 180.212 703.958 188.872 714.841 188.872Z" fill="#FFB8B8"/>
<path d="M731.86 173.926C731.86 173.926 732.755 201.181 737.234 204.698C741.713 208.214 721.111 223.16 721.111 223.16L707.675 202.06V182.718L731.86 173.926Z" fill="#FFB8B8"/>
<path d="M722.903 210.852L733.777 194.734L739.921 202.939L748.878 227.557L741.713 323.387L699.614 324.267L694.24 214.369L707.675 198.544L722.903 210.852Z" fill="#F3F38E"/>
<path d="M677.221 217.006L670.055 216.127C670.055 216.127 668.264 217.006 667.368 223.16C666.472 229.315 655.724 283.824 655.724 283.824L670.055 350.642L686.178 329.542L676.325 292.616L686.178 255.69L677.221 217.006Z" fill="#2F2E41"/>
<path d="M768.584 216.127H773.958L787.394 287.341L774.854 342.73L762.314 322.508L765.896 300.529L764.105 281.187L757.835 269.757L768.584 216.127Z" fill="#2F2E41"/>
<path d="M688.865 501.863C688.865 501.863 694.239 500.104 694.239 503.621C694.239 507.138 690.657 517.688 690.657 517.688C690.657 517.688 696.031 550.218 687.969 548.46C679.908 546.701 673.638 531.755 672.742 527.359C671.847 522.963 667.368 500.104 667.368 500.104C667.368 500.104 660.202 483.4 664.681 482.521C669.159 481.641 681.699 478.125 681.699 478.125C681.699 478.125 674.534 500.104 688.865 501.863Z" fill="#2F2E41"/>
<path d="M714.841 529.117C714.841 529.117 729.172 520.326 731.859 527.359C733.642 532.489 734.843 537.796 735.442 543.184C735.442 543.184 739.025 554.614 724.694 552.856C710.362 551.097 712.154 551.097 711.258 545.822C710.362 540.547 714.841 529.117 714.841 529.117Z" fill="#2F2E41"/>
<path d="M726.485 169.53L722.902 168.651C722.902 168.651 720.215 153.705 713.945 155.463C707.675 157.221 691.552 158.98 691.552 151.946C691.552 144.913 706.779 138.759 715.737 139.638C724.694 140.517 739.921 143.154 739.025 156.342C738.13 169.53 732.35 182.359 732.35 182.359L731.883 174.54L726.485 169.53Z" fill="#2F2E41"/>
<path d="M707.675 221.402L722.903 210.852L707.675 198.543L702.389 204.77L707.675 221.402Z" fill="#F3F38E"/>
<path d="M736.338 220.523L722.903 210.852L733.651 195.027L739.921 202.939L736.338 220.523Z" fill="#F3F38E"/>
<path d="M670.951 216.127L699.614 204.698L706.332 199.862L726.485 287.341L739.921 247.778L735.89 197.224L773.062 216.127L760.522 275.912L758.731 298.771L764.105 317.233C764.105 317.233 782.915 330.421 776.645 344.488C770.375 358.555 763.21 359.434 763.21 359.434C763.21 359.434 732.755 331.3 730.964 324.267C729.172 317.233 726.485 304.925 726.485 304.925C726.485 304.925 711.258 361.193 693.344 360.314C675.43 359.434 675.43 340.971 675.43 340.971L679.908 321.629L687.074 301.408L683.491 267.999L670.951 216.127Z" fill="#2F2E41"/>
</svg>
