<svg width="592" height="442" viewBox="0 0 592 442" fill="none" xmlns="http://www.w3.org/2000/svg">
<g clip-path="url(#clip0)">
<path d="M506.378 41.6461L449.031 59.0792C438.833 28.5624 423.37 62.9454 437.997 41.6461C437.997 36.1771 438.971 30.7616 440.864 25.7088C442.758 20.6561 445.532 16.0651 449.031 12.1979C452.529 8.33067 456.682 5.26304 461.252 3.17013C465.823 1.07722 470.722 1.14485e-05 475.669 1.14485e-05C481.681 -0.00491949 487.607 1.58306 492.95 4.63091C498.293 7.67875 502.898 12.0977 506.378 17.5176C512.331 26.7611 513.524 38.6767 510.11 49.3779C504.026 68.4502 500.777 14.2838 506.378 41.6461Z" fill="#2F2E41"/>
<path d="M559.511 442C557.221 442 554.991 441.191 553.148 439.693C551.306 438.195 549.948 436.086 549.275 433.675L546.014 422.006C545.26 419.306 545.114 416.444 545.591 413.669L547.812 400.744H563.388L569.852 427.136C570.28 428.884 570.337 430.718 570.018 432.494C569.699 434.27 569.013 435.941 568.013 437.379C567.013 438.816 565.726 439.98 564.252 440.782C562.777 441.583 561.155 442 559.511 442Z" fill="#2F2E41"/>
<path d="M446.024 442C448.314 442 450.544 441.191 452.387 439.693C454.229 438.195 455.587 436.086 456.26 433.675L459.521 422.006C460.275 419.306 460.42 416.444 459.944 413.669L457.723 400.744H442.147L435.683 427.136C435.255 428.884 435.198 430.718 435.517 432.494C435.836 434.27 436.522 435.941 437.522 437.379C438.522 438.816 439.809 439.98 441.283 440.782C442.758 441.583 444.38 442 446.024 442Z" fill="#2F2E41"/>
<path d="M564.651 402.134H547.391L472.457 245.452L458.633 402.134H443.41C435.6 303.469 416.599 209.487 443.41 174.065L506.135 180.555L564.651 402.134Z" fill="#2F2E41"/>
<path d="M476.036 68.1426C487.661 68.1426 497.085 57.7656 497.085 44.9649C497.085 32.1642 487.661 21.7871 476.036 21.7871C464.411 21.7871 454.987 32.1642 454.987 44.9649C454.987 57.7656 464.411 68.1426 476.036 68.1426Z" fill="#9F616A"/>
<path d="M505.714 134.199H458.986L450.987 93.4064C466.505 88.3584 470.205 76.6174 466.984 60.9575L492.243 59.1033C493.675 71.7177 496.294 83.4797 512.45 85.526L505.714 134.199Z" fill="#9F616A"/>
<path d="M505.714 185.19C479.203 196.275 457.635 195.929 442.568 180.555C449.367 155.865 449.774 125.462 446.778 92.0157L455.197 87.8437L458.144 117.511L499.821 115.194L509.082 82.7446L518.344 85.0624C519.054 125.294 516.865 161.488 505.714 185.19Z" fill="#E6E6E6"/>
<path d="M530.131 235.254L535.081 252.969C535.482 254.404 535.571 255.922 535.342 257.403C535.113 258.883 534.572 260.283 533.762 261.491C532.952 262.699 531.895 263.68 530.678 264.357C529.461 265.033 528.116 265.385 526.752 265.385C525.532 265.385 524.325 265.103 523.209 264.557C522.094 264.01 521.096 263.212 520.278 262.213C519.461 261.214 518.844 260.038 518.466 258.76C518.088 257.481 517.959 256.13 518.086 254.793L520.027 234.327L512.029 164.794L517.923 134.199H532.657L530.131 235.254Z" fill="#9F616A"/>
<path d="M394.434 200.125L381.586 211.013C380.545 211.895 379.923 212.89 379.77 213.917C379.618 214.944 379.939 215.976 380.707 216.928C381.476 217.881 382.671 218.727 384.196 219.401C385.721 220.074 387.533 220.554 389.487 220.804C391.236 221.027 393.058 221.06 394.834 220.9C396.61 220.741 398.3 220.392 399.795 219.876C401.291 219.361 402.558 218.691 403.514 217.909C404.471 217.127 405.096 216.251 405.348 215.338L409.214 201.356L443.266 156.526L450.133 135.057L423.644 132.381L394.434 200.125Z" fill="#9F616A"/>
<path d="M543.182 137.908L515.397 137.444V84.1353L519.675 84.8222C524.215 85.5513 528.401 87.9406 531.56 91.6058C534.718 95.271 536.665 99.9992 537.088 105.03L543.182 137.908Z" fill="#E6E6E6"/>
<path d="M424.466 143.47L452.25 143.007V89.6979L447.972 90.3849C443.432 91.114 439.246 93.5033 436.088 97.1685C432.929 100.834 430.982 105.562 430.559 110.593L424.466 143.47Z" fill="#E6E6E6"/>
<path d="M497.234 34.635C488.072 40.2013 470.465 42.7474 457.549 38.8037L453.235 14.7183H495.94L497.234 34.635Z" fill="#2F2E41"/>
<path d="M164.38 319.952H27.2832V441.624H164.38V319.952Z" fill="#E6E6E6"/>
<path d="M107.427 406.325H84.2363V440.873H107.427V406.325Z" fill="#999071"/>
<path d="M332.871 323.546L336.52 312.831L370.576 291.402L393.687 286.044L332.871 323.546Z" fill="#999071"/>
<path d="M207.591 323.546L203.942 312.831L169.885 291.402L146.775 286.044L207.591 323.546Z" fill="#999071"/>
<path d="M335.304 326.224H205.158L194.211 269.972H346.25L335.304 326.224Z" fill="#999071"/>
<path opacity="0.1" d="M335.304 326.224H205.158L194.211 269.972H346.25L335.304 326.224Z" fill="black"/>
<path d="M335.912 322.875H204.55V441.624H335.912V322.875Z" fill="#999071"/>
<path d="M281.826 406.307H258.636V440.856H281.826V406.307Z" fill="#3F3D56"/>
<path d="M591.73 441.767H0V440.128H592L591.73 441.767Z" fill="#3F3D56"/>
<path d="M297.514 347.178H242.948V365.955H297.514V347.178Z" fill="white"/>
<path d="M122.753 347.178H68.1865V365.955H122.753V347.178Z" fill="white"/>
<path d="M350.228 182.094H350.217L291.741 181.714C291.316 181.711 290.907 181.548 290.59 181.258C290.273 180.967 290.07 180.567 290.02 180.134L284.138 128.852C284.102 128.521 283.951 128.215 283.712 127.989C283.474 127.764 283.164 127.634 282.839 127.625C278.197 127.469 267.152 126.384 264.863 119.678C262.825 113.706 268.4 104.898 281.434 93.4963C281.656 93.3017 281.922 93.1673 282.207 93.1052C282.493 93.0431 282.789 93.0553 283.068 93.1408C283.348 93.2263 283.602 93.3823 283.808 93.5945C284.013 93.8067 284.164 94.0684 284.246 94.3557L291.012 118.299C291.094 118.587 291.265 118.839 291.498 119.02C291.73 119.201 292.014 119.3 292.306 119.303L347.75 119.685C348.04 119.688 348.324 119.595 348.559 119.419C348.794 119.244 348.967 118.995 349.053 118.711L356.582 94.1403C356.666 93.866 356.812 93.6166 357.01 93.413C357.208 93.2094 357.451 93.0577 357.718 92.9707C357.985 92.8837 358.268 92.8641 358.544 92.9134C358.82 92.9627 359.08 93.0796 359.303 93.254C364.44 97.2784 380.99 111.095 378.266 119.932C376.84 124.56 370.405 127.139 359.141 127.599C358.817 127.611 358.508 127.741 358.271 127.966C358.033 128.192 357.882 128.497 357.846 128.827L351.961 180.512C351.912 180.948 351.708 181.35 351.388 181.641C351.069 181.933 350.656 182.094 350.228 182.094Z" fill="#F3F38E"/>
<path d="M186.759 248.888C186.735 248.888 186.711 248.888 186.688 248.887L171.765 248.32C171.3 248.305 170.855 248.119 170.513 247.795C170.172 247.47 169.956 247.03 169.906 246.555C168.879 237.156 164.652 189.258 182.359 169.35C184.866 166.476 187.964 164.21 191.431 162.716C194.897 161.223 198.644 160.54 202.4 160.716C202.552 160.726 202.705 160.693 202.84 160.62C202.976 160.548 203.09 160.439 203.169 160.305L206.781 154.482C206.979 154.166 207.259 153.914 207.59 153.753C207.92 153.593 208.288 153.53 208.651 153.573C211.547 153.932 226.311 155.626 232.519 153.783C232.885 153.672 233.275 153.674 233.64 153.789C234.005 153.904 234.329 154.127 234.571 154.43L239.315 160.377C239.396 160.484 239.502 160.57 239.622 160.628C239.743 160.685 239.875 160.712 240.007 160.706C242.42 160.656 250.88 161.135 258.285 169.63C266.302 178.828 274.577 199.581 268.464 246.21C268.4 246.689 268.17 247.128 267.815 247.446C267.461 247.765 267.006 247.941 266.535 247.943H254.782C254.315 247.941 253.865 247.768 253.512 247.455C253.159 247.141 252.927 246.709 252.858 246.236L249.019 219.064C248.987 218.841 248.875 218.637 248.704 218.495C248.533 218.353 248.317 218.281 248.097 218.295C247.877 218.309 247.671 218.407 247.518 218.57C247.366 218.733 247.279 218.948 247.274 219.174L247.009 231.931C247.001 232.31 246.888 232.678 246.684 232.993C246.479 233.308 246.192 233.557 245.854 233.711C241.664 235.601 219.526 244.463 195.057 233.364C194.726 233.211 194.443 232.967 194.239 232.659C194.035 232.352 193.919 231.992 193.902 231.62L193.421 220.029C193.412 219.802 193.32 219.588 193.163 219.428C193.006 219.269 192.796 219.176 192.576 219.168C192.355 219.16 192.14 219.238 191.972 219.386C191.805 219.534 191.698 219.741 191.674 219.966L188.691 247.118C188.635 247.604 188.408 248.053 188.052 248.379C187.696 248.705 187.236 248.886 186.759 248.888Z" fill="#F3F38E"/>
<path d="M92.4643 95.7952C92.4643 95.7952 67.4439 89.6757 53.6826 100.895C39.9214 112.114 71.1969 137.612 71.1969 137.612L92.4643 95.7952Z" fill="#2F2E41"/>
<path d="M118.339 242.135C117.838 240.733 117.632 239.232 117.737 237.737C117.842 236.241 118.254 234.789 118.944 233.481C119.635 232.173 120.588 231.042 121.735 230.167C122.882 229.292 124.196 228.695 125.584 228.417L130.641 192.368L143.928 205.009L137.09 237.304C137.374 239.81 136.783 242.34 135.428 244.415C134.072 246.489 132.047 247.964 129.736 248.559C127.425 249.155 124.988 248.83 122.888 247.646C120.787 246.462 119.169 244.501 118.339 242.135H118.339Z" fill="#FFB8B8"/>
<path d="M65.9647 429.277L77.7195 428.449L80.3044 379.932L62.9561 381.154L65.9647 429.277Z" fill="#FFB8B8"/>
<path d="M100.681 439.756H63.656V424.572H86.3757C90.1696 424.572 93.8081 426.172 96.4908 429.019C99.1735 431.867 100.681 435.729 100.681 439.756Z" fill="#2F2E41"/>
<path d="M86.2793 412.006L97.3308 416.335L118.326 373.15L102.014 366.761L86.2793 412.006Z" fill="#FFB8B8"/>
<path d="M114.857 435.578L80.123 421.97L85.0767 407.726L106.391 416.077C109.95 417.471 112.841 420.309 114.429 423.967C116.017 427.624 116.171 431.801 114.857 435.578L114.857 435.578Z" fill="#2F2E41"/>
<path d="M119.709 226.626C119.709 226.626 131.769 233.395 128.058 260.471L124.348 362.973L103.848 409.701L86.2226 404.866L97.4459 366.841L82.6036 300.118L80.6568 421.305L63.9593 424.206L39.9321 222.758L70.5443 208.253L119.709 226.626Z" fill="#2F2E41"/>
<path d="M76.606 85.9606C89.8102 85.9606 100.514 74.8023 100.514 61.0379C100.514 47.2734 89.8102 36.1151 76.606 36.1151C63.4019 36.1151 52.6978 47.2734 52.6978 61.0379C52.6978 74.8023 63.4019 85.9606 76.606 85.9606Z" fill="#FFB8B8"/>
<path d="M90.4889 92.696L78.4296 113.003L60.8043 94.63L27.8542 118.674C26.6982 119.515 25.85 120.74 25.4481 122.149C25.0461 123.558 25.1143 125.067 25.6414 126.43C30.7099 139.495 43.6892 178.113 39.9324 222.758C39.9324 222.758 64.9787 215.989 90.9527 223.725C116.927 231.461 123.42 228.56 123.42 228.56C123.42 228.56 116.927 179.243 120.637 168.606C123.715 159.783 129.984 130.333 132.033 120.547C132.226 119.623 132.129 118.658 131.756 117.796C131.384 116.933 130.755 116.218 129.962 115.757L90.4889 92.696Z" fill="#645E49"/>
<path d="M129.007 115.875C130.027 115.723 131.065 115.963 131.927 116.551C132.789 117.139 133.416 118.035 133.691 119.07L149.394 178.18L145.684 213.959L128.058 211.059L129.914 185.916L116.927 154.005L125.5 119.152C125.708 118.305 126.152 117.542 126.776 116.959C127.401 116.375 128.177 115.998 129.007 115.875Z" fill="#645E49"/>
<path d="M58.1186 26.0523C59.7128 23.2314 62.0239 20.9247 64.7966 19.3868C67.5693 17.849 70.6958 17.1399 73.8308 17.3378C77.1101 17.7664 80.3101 18.7002 83.3264 20.1086L98.9557 26.464C103 28.1085 107.429 30.1229 109.184 34.262C110.813 38.1035 109.598 42.5402 108.368 46.5397L102.52 65.5512C101.873 61.2484 100.761 57.0356 99.2065 52.9927C97.5079 49.0177 94.8215 45.3525 91.1073 43.3662C87.0476 41.1952 82.2626 41.2402 77.7051 41.4688C71.2505 41.7926 64.2325 42.6487 59.6465 47.3945C57.212 50.0897 55.5615 53.4499 54.887 57.0844C54.223 60.6995 53.8888 64.372 53.8889 68.0528C51.242 63.31 49.0124 58.3271 47.2273 53.1653C45.7589 49.3217 44.9222 45.2477 44.7522 41.1144C44.5988 36.9457 45.9256 32.8644 48.4788 29.6518C51.1193 26.5755 55.4217 24.9147 59.2053 26.1326" fill="#2F2E41"/>
<path d="M44.8221 257.266C45.3299 255.872 45.5382 254.378 45.4322 252.89C45.3263 251.403 44.9088 249.957 44.209 248.656C43.5093 247.355 42.5444 246.229 41.3822 245.359C40.2201 244.489 38.889 243.894 37.4827 243.618L32.3604 207.752L18.8999 220.329L25.8277 252.46C25.5393 254.953 26.1383 257.471 27.5112 259.534C28.8841 261.598 30.9356 263.065 33.2769 263.658C35.6182 264.25 38.0867 263.927 40.2145 262.749C42.3424 261.571 43.9818 259.62 44.8221 257.266Z" fill="#FFB8B8"/>
<path d="M28.0728 116.77C26.6861 117.015 25.42 117.756 24.4848 118.87C23.5496 119.984 23.0014 121.404 22.9311 122.895L17.6846 234.268H36.9147L43.3248 174.98L35.1671 122.163C35.036 121.314 34.7483 120.501 34.3206 119.77C33.8928 119.039 33.3334 118.405 32.6744 117.904C32.0154 117.403 31.2697 117.045 30.4801 116.85C29.6905 116.655 28.8724 116.628 28.0728 116.77Z" fill="#645E49"/>
</g>
<defs>
<clipPath id="clip0">
<rect width="592" height="442" fill="white"/>
</clipPath>
</defs>
</svg>
