<svg width="467" height="394" viewBox="0 0 467 394" fill="none" xmlns="http://www.w3.org/2000/svg">
<g clip-path="url(#clip0)">
<path d="M48.9153 343.665C46.6943 346.426 44.989 349.431 43.8534 352.585C42.8931 355.404 42.4656 358.322 42.5853 361.242C42.8951 367.251 45.0064 373.112 48.7417 378.333C51.5554 382.294 54.9844 385.955 58.9473 389.229C60.8878 390.279 62.829 391.305 64.7708 392.307C64.7839 392.312 64.7975 392.322 64.8108 392.326C64.9042 392.374 64.9978 392.422 65.0849 392.471C65.4856 392.677 65.8865 392.884 66.284 393.088C66.284 393.088 65.8513 393.257 66.0858 393.181C66.1556 393.157 66.2288 393.136 66.2984 393.113C65.5748 388.373 66.2837 383.563 68.3657 379.087C70.4478 374.611 73.8423 370.599 78.2649 367.387C82.6981 364.224 88.0043 361.942 93.7508 360.729C93.4688 360.407 93.1652 360.098 92.8491 359.795C90.6297 360.293 88.4697 360.946 86.3942 361.747C78.9753 364.593 72.9006 369.273 69.0693 375.092C65.6312 380.376 64.1515 386.335 64.8039 392.267C64.4722 392.027 64.14 391.782 63.8179 391.539C57.6826 386.969 52.2332 381.723 48.5452 375.669C45.3456 370.542 43.7731 364.865 43.9661 359.139C44.2671 352.894 47.3811 347.111 51.8898 342.075C56.8314 336.704 62.6691 331.897 69.2407 327.789C75.8635 323.551 83.1105 319.976 90.8201 317.144C90.994 317.08 91.13 316.964 91.2001 316.821C91.2701 316.678 91.2688 316.52 91.1965 316.378C91.145 316.25 91.0328 316.144 90.884 316.083C90.8075 316.056 90.7245 316.044 90.6412 316.047C90.558 316.05 90.4766 316.067 90.4031 316.099C89.4513 316.449 88.506 316.804 87.5683 317.174C79.7582 320.258 72.4579 324.106 65.8351 328.628C59.438 332.985 53.4154 337.964 48.9153 343.665Z" fill="white"/>
<path d="M183.012 167.412C196.059 161.714 200.666 148.371 193.302 137.609C185.939 126.847 169.393 122.742 156.347 128.44C143.3 134.138 138.693 147.482 146.057 158.243C153.42 169.005 169.966 173.11 183.012 167.412Z" fill="#2F2E41"/>
<path d="M169.679 171.355C181.931 171.355 191.863 163.42 191.863 153.632C191.863 143.843 181.931 135.908 169.679 135.908C157.428 135.908 147.496 143.843 147.496 153.632C147.496 163.42 157.428 171.355 169.679 171.355Z" fill="#FFB8B8"/>
<path d="M157.785 180.742L154.932 187.189L159.128 206.592L176.421 218.072L190.154 201.106L183.542 185.055L178.583 180.586C178.631 180.184 178.576 179.778 178.419 179.395C178.262 179.011 178.008 178.657 177.672 178.356C177.336 178.054 176.926 177.811 176.467 177.643C176.008 177.474 175.51 177.383 175.005 177.375L164.175 177.206C162.78 177.184 161.412 177.514 160.265 178.149C159.118 178.784 158.25 179.691 157.785 180.742Z" fill="#CCCCCC"/>
<path d="M203.74 385.122L214.813 385.121L216.342 350.997L203.736 350.999L203.74 385.122Z" fill="#FFB8B8"/>
<path d="M236.169 393.334L201.368 393.337L201.367 382.594L222.722 382.593C226.288 382.592 229.708 383.724 232.23 385.738C234.752 387.753 236.169 390.485 236.169 393.334L236.169 393.334Z" fill="#2F2E41"/>
<path d="M126.171 385.122L137.244 385.121L142.509 350.997L126.167 350.999L126.171 385.122Z" fill="#FFB8B8"/>
<path d="M158.6 393.334L123.799 393.337L123.797 382.594L145.153 382.593C148.719 382.592 152.139 383.724 154.661 385.738C157.182 387.753 158.599 390.485 158.6 393.334L158.6 393.334Z" fill="#2F2E41"/>
<path d="M223.532 145.482C224.668 146.031 225.639 146.772 226.378 147.654C227.117 148.535 227.605 149.535 227.807 150.584C228.01 151.632 227.922 152.703 227.55 153.722C227.179 154.74 226.532 155.681 225.656 156.478L234.814 171.359L224.854 178.011L212.29 156.852C210.711 155.587 209.768 153.904 209.639 152.121C209.51 150.338 210.204 148.579 211.59 147.177C212.975 145.776 214.956 144.829 217.157 144.517C219.358 144.204 221.626 144.548 223.532 145.482H223.532Z" fill="#FFB8B8"/>
<path d="M157.511 262.003C152.113 261.946 146.724 261.629 141.374 261.052C140.459 260.959 139.579 260.711 138.793 260.324C138.008 259.937 137.336 259.42 136.822 258.808C136.308 258.196 135.965 257.503 135.815 256.775C135.665 256.048 135.712 255.303 135.952 254.592L147.939 219.131L138.286 197.494C137.246 195.157 137.363 192.591 138.612 190.321C139.861 188.051 142.149 186.248 145.007 185.28L158.267 180.801L162.252 200.511L171.746 210.075C172.061 210.393 172.47 210.644 172.935 210.805C173.401 210.966 173.909 211.034 174.414 211.001C174.92 210.968 175.408 210.836 175.834 210.617C176.261 210.398 176.614 210.098 176.861 209.744L184.071 199.419L178.181 180.446L186.962 181.276C189.797 181.552 192.477 182.458 194.699 183.891C196.921 185.324 198.593 187.227 199.527 189.383C202.226 195.653 202.461 202.432 200.202 208.811L196.563 219.139L202.952 252.132C203.127 253.031 203.071 253.949 202.789 254.831C202.506 255.712 202.003 256.538 201.309 257.26C200.615 257.981 199.745 258.582 198.752 259.027C197.758 259.472 196.662 259.751 195.53 259.847C191.447 260.223 187.336 260.36 183.229 260.258C179.501 260.131 176.884 258.315 175.658 255.007C175.591 254.813 175.447 254.642 175.248 254.52C175.048 254.398 174.804 254.331 174.553 254.33C174.302 254.329 174.057 254.394 173.856 254.514C173.655 254.635 173.508 254.804 173.439 254.997C173.1 255.958 172.727 257.028 172.32 258.207C171.333 261.069 165.151 262.003 157.511 262.003Z" fill="#2F2E41"/>
<path d="M196.038 197.995C194.938 197.998 193.847 197.826 192.83 197.489C191.636 197.094 190.581 196.47 189.759 195.672C188.937 194.875 188.373 193.928 188.117 192.916C187.73 191.31 187.999 189.647 188.885 188.172C189.771 186.698 191.227 185.49 193.037 184.727L218.911 173.504L217.496 169.033C217.3 168.347 217.36 167.631 217.67 166.972C217.979 166.314 218.523 165.742 219.235 165.329L225.906 161.369C226.413 161.058 227.001 160.842 227.626 160.737C228.251 160.631 228.898 160.639 229.519 160.759C230.066 160.869 230.575 161.076 231.01 161.363C231.444 161.651 231.793 162.013 232.029 162.422L235.495 168.401C238.238 173.131 235.893 178.958 230.041 181.953L201.022 196.805C199.537 197.574 197.808 197.987 196.038 197.995Z" fill="#2F2E41"/>
<path d="M141.527 369.259C141.437 369.259 141.347 369.257 141.256 369.252L127.158 368.8C126.611 368.772 126.077 368.657 125.587 368.461C125.097 368.264 124.663 367.991 124.309 367.657C123.955 367.323 123.689 366.935 123.527 366.517C123.366 366.098 123.312 365.658 123.368 365.223L137.677 255.241L175.228 244.332L197.342 254.329L221.534 360.897C221.724 361.712 221.516 362.555 220.954 363.252C220.391 363.949 219.515 364.448 218.507 364.645L218.448 364.657L204.017 364.374C203.022 364.554 201.979 364.429 201.094 364.025C200.208 363.62 199.545 362.965 199.234 362.189L168.499 276.019C168.407 275.794 168.225 275.599 167.981 275.465C167.737 275.331 167.445 275.264 167.149 275.275C166.853 275.286 166.57 275.374 166.343 275.526C166.115 275.678 165.957 275.885 165.891 276.116L145.487 366.716C145.289 367.437 144.788 368.083 144.068 368.545C143.348 369.008 142.451 369.26 141.527 369.259Z" fill="#2F2E41"/>
<path d="M150.304 142.443C146.775 146.134 149.461 152.417 155.079 153.612C160.697 154.808 166.938 150.425 166.175 145.82C164.962 150.651 170.137 155.707 176.281 156.136C182.424 156.566 188.398 152.72 189.742 147.911C191.086 143.103 188.086 137.849 182.98 135.086C177.873 132.324 171.035 131.965 165.257 133.687C159.358 135.45 154.184 138.48 150.304 142.443Z" fill="#2F2E41"/>
<path d="M177.046 126.687C173.76 121.178 170.384 115.563 165.073 111.176C159.762 106.79 152.079 103.768 144.551 104.803C137.023 105.837 130.54 111.908 132.207 117.864C133.054 120.889 129.812 123.886 126.074 124.72C122.337 125.553 118.354 124.774 114.659 123.827C110.965 122.88 107.222 121.749 103.345 121.882C95.5723 122.15 89.0735 128.028 88.8004 134.24C88.5273 140.452 93.8166 146.366 100.913 148.914C108.009 151.463 116.498 150.892 123.497 148.178C130.497 145.464 136.093 140.785 140.186 135.498C146.234 127.687 161.43 125.76 170.208 131.692C171.148 132.282 172.331 132.567 173.522 132.49C174.714 132.414 175.825 131.982 176.635 131.28C178.188 129.833 177.963 127.392 177.046 126.687Z" fill="#2F2E41"/>
<path d="M342.81 95.7246L335.41 90.3908C309.129 71.1133 291.779 58.6013 291.779 43.0152C291.779 30.2989 304.026 20.4549 319.846 20.4549C324.227 20.4735 328.55 21.2537 332.516 22.7413C336.481 24.2288 339.994 26.3881 342.81 29.0692C345.626 26.388 349.139 24.2287 353.104 22.7412C357.07 21.2536 361.393 20.4735 365.774 20.4549C381.594 20.4549 393.841 30.299 393.841 43.0152C393.841 58.6015 376.491 71.1136 350.21 90.3908L342.81 95.7246Z" fill="#FFF2BE"/>
<path d="M220.979 132.405C220.285 132.212 219.685 131.85 219.262 131.371C218.839 130.891 218.615 130.318 218.62 129.732V6.49451C218.623 4.77266 219.48 3.1219 221.004 1.90437C222.528 0.686842 224.594 0.00196909 226.749 0H458.871C461.026 0.00196909 463.092 0.686842 464.616 1.90437C466.14 3.1219 466.997 4.77266 467 6.49451V110.407C466.997 112.128 466.14 113.779 464.616 114.997C463.092 116.214 461.026 116.899 458.871 116.901H239.904L224.924 131.53C224.595 131.855 224.179 132.118 223.706 132.299C223.234 132.48 222.717 132.574 222.193 132.575C221.779 132.575 221.368 132.517 220.979 132.405ZM226.749 1.44322C225.073 1.44473 223.466 1.9774 222.28 2.92437C221.095 3.87134 220.428 5.15528 220.427 6.49451V129.732C220.427 130.019 220.538 130.3 220.746 130.536C220.953 130.771 221.247 130.949 221.586 131.046C221.926 131.143 222.294 131.154 222.641 131.076C222.989 130.999 223.297 130.838 223.526 130.616L239.048 115.458H458.871C460.547 115.456 462.154 114.924 463.34 113.977C464.525 113.03 465.192 111.746 465.193 110.407V6.49451C465.192 5.15528 464.525 3.87134 463.34 2.92437C462.154 1.9774 460.547 1.44473 458.871 1.44322H226.749Z" fill="#3F3D56"/>
<path d="M152.531 244.881L150.962 241.969C145.462 231.502 141.786 224.671 145.029 219.03C146.205 216.885 148.4 215.202 151.13 214.349C153.86 213.497 156.903 213.547 159.587 214.487C159.685 214.521 159.782 214.556 159.879 214.593C161.46 215.181 162.863 216.038 163.988 217.103C165.114 218.168 165.936 219.416 166.397 220.76C167.974 220.163 169.694 219.848 171.439 219.837C173.184 219.825 174.91 220.117 176.5 220.692C177.825 221.164 179.022 221.839 180.021 222.681C181.02 223.522 181.801 224.512 182.321 225.595C182.841 226.677 183.089 227.831 183.051 228.99C183.012 230.15 182.689 231.291 182.098 232.351C182.055 232.429 182.01 232.506 181.963 232.583C178.721 238.224 169.839 240.448 156.318 243.934L152.531 244.881Z" fill="#FFF2BE"/>
<path d="M158.575 230.572C158.153 229.566 157.46 228.647 156.544 227.879C155.629 227.11 154.514 226.511 153.278 226.124C152.041 225.737 150.714 225.572 149.389 225.639C148.064 225.707 146.773 226.005 145.608 226.514L129.374 216.771L125.455 225.684L142.232 236.854C143.432 238.361 145.282 239.464 147.432 239.954C149.582 240.444 151.882 240.287 153.896 239.513C155.911 238.738 157.5 237.401 158.362 235.753C159.224 234.105 159.3 232.262 158.575 230.572H158.575Z" fill="#FFB8B8"/>
<path d="M135.298 233.645C134.583 233.645 133.883 233.483 133.279 233.177L126.307 229.657C120.791 226.872 118.804 220.962 121.686 215.909L135.978 190.854C136.552 189.803 137.435 188.88 138.552 188.161C139.67 187.443 140.988 186.951 142.395 186.728C143.667 186.542 144.976 186.609 146.208 186.923C147.44 187.237 148.557 187.787 149.46 188.527C150.876 189.708 151.778 191.222 152.035 192.845C152.292 194.467 151.889 196.113 150.887 197.538L136.773 218.182L140.998 221.323C141.628 221.815 142.064 222.443 142.251 223.13C142.439 223.817 142.37 224.533 142.053 225.189L139.137 231.407C138.922 231.888 138.575 232.324 138.122 232.684C137.668 233.043 137.12 233.317 136.517 233.485C136.124 233.591 135.713 233.645 135.298 233.645Z" fill="#2F2E41"/>
<path d="M284.508 394H0.903199C0.663656 394 0.433936 393.924 0.264554 393.789C0.0951713 393.653 0 393.47 0 393.278C0 393.087 0.0951713 392.903 0.264554 392.768C0.433936 392.633 0.663656 392.557 0.903199 392.557H284.508C284.747 392.557 284.977 392.633 285.146 392.768C285.316 392.903 285.411 393.087 285.411 393.278C285.411 393.47 285.316 393.653 285.146 393.789C284.977 393.924 284.747 394 284.508 394Z" fill="#CCCCCC"/>
</g>
<defs>
<clipPath id="clip0">
<rect width="467" height="394" fill="white"/>
</clipPath>
</defs>
</svg>
